<svg id="visual" viewBox="0 0 900 600" width="900" height="600" xmlns="http://www.w3.org/2000/svg" xmlns:xlink="http://www.w3.org/1999/xlink" version="1.1"><rect x="0" y="0" width="900" height="600" fill="#ffffff"></rect><path d="M0 449L21.5 440C43 431 86 413 128.8 405.3C171.7 397.7 214.3 400.3 257.2 409.3C300 418.3 343 433.7 385.8 427C428.7 420.3 471.3 391.7 514.2 384C557 376.3 600 389.7 642.8 401.3C685.7 413 728.3 423 771.2 428C814 433 857 433 878.5 433L900 433L900 601L878.5 601C857 601 814 601 771.2 601C728.3 601 685.7 601 642.8 601C600 601 557 601 514.2 601C471.3 601 428.7 601 385.8 601C343 601 300 601 257.2 601C214.3 601 171.7 601 128.8 601C86 601 43 601 21.5 601L0 601Z" fill="#dc0183"></path><path d="M0 459L21.5 448.2C43 437.3 86 415.7 128.8 407C171.7 398.3 214.3 402.7 257.2 406.5C300 410.3 343 413.7 385.8 416.7C428.7 419.7 471.3 422.3 514.2 427.7C557 433 600 441 642.8 449.3C685.7 457.7 728.3 466.3 771.2 457.7C814 449 857 423 878.5 410L900 397L900 601L878.5 601C857 601 814 601 771.2 601C728.3 601 685.7 601 642.8 601C600 601 557 601 514.2 601C471.3 601 428.7 601 385.8 601C343 601 300 601 257.2 601C214.3 601 171.7 601 128.8 601C86 601 43 601 21.5 601L0 601Z" fill="#ba38a4"></path><path d="M0 484L21.5 486.7C43 489.3 86 494.7 128.8 495.3C171.7 496 214.3 492 257.2 482C300 472 343 456 385.8 451.5C428.7 447 471.3 454 514.2 454.2C557 454.3 600 447.7 642.8 445C685.7 442.3 728.3 443.7 771.2 455.2C814 466.7 857 488.3 878.5 499.2L900 510L900 601L878.5 601C857 601 814 601 771.2 601C728.3 601 685.7 601 642.8 601C600 601 557 601 514.2 601C471.3 601 428.7 601 385.8 601C343 601 300 601 257.2 601C214.3 601 171.7 601 128.8 601C86 601 43 601 21.5 601L0 601Z" fill="#8c51b7"></path><path d="M0 511L21.5 516.2C43 521.3 86 531.7 128.8 534.7C171.7 537.7 214.3 533.3 257.2 527.3C300 521.3 343 513.7 385.8 513.3C428.7 513 471.3 520 514.2 522.5C557 525 600 523 642.8 524.5C685.7 526 728.3 531 771.2 530.8C814 530.7 857 525.3 878.5 522.7L900 520L900 601L878.5 601C857 601 814 601 771.2 601C728.3 601 685.7 601 642.8 601C600 601 557 601 514.2 601C471.3 601 428.7 601 385.8 601C343 601 300 601 257.2 601C214.3 601 171.7 601 128.8 601C86 601 43 601 21.5 601L0 601Z" fill="#5660bb"></path><path d="M0 530L21.5 537.2C43 544.3 86 558.7 128.8 561.2C171.7 563.7 214.3 554.3 257.2 553.2C300 552 343 559 385.8 559.8C428.7 560.7 471.3 555.3 514.2 554.2C557 553 600 556 642.8 556.3C685.7 556.7 728.3 554.3 771.2 552.2C814 550 857 548 878.5 547L900 546L900 601L878.5 601C857 601 814 601 771.2 601C728.3 601 685.7 601 642.8 601C600 601 557 601 514.2 601C471.3 601 428.7 601 385.8 601C343 601 300 601 257.2 601C214.3 601 171.7 601 128.8 601C86 601 43 601 21.5 601L0 601Z" fill="#0868b2"></path></svg>